<?xml version="1.0" standalone="no"?><!DOCTYPE svg PUBLIC "-//W3C//DTD SVG 1.1//EN"
        "http://www.w3.org/Graphics/SVG/1.1/DTD/svg11.dtd">
<svg t="1652615196398" class="icon" viewBox="0 0 1024 1024" version="1.1" xmlns="http://www.w3.org/2000/svg"
     p-id="16097" xmlns:xlink="http://www.w3.org/1999/xlink" width="200" height="200">
    <defs>
        <style type="text/css">@font-face { font-family: feedback-iconfont; src:
            url("//at.alicdn.com/t/font_1031158_u69w8yhxdu.woff2?t=1630033759944") format("woff2"),
            url("//at.alicdn.com/t/font_1031158_u69w8yhxdu.woff?t=1630033759944") format("woff"),
            url("//at.alicdn.com/t/font_1031158_u69w8yhxdu.ttf?t=1630033759944") format("truetype"); }
        </style>
    </defs>
    <path d="M219.428571 621.714286c0 222.171429 180.114286 402.285714 402.285715 402.285714s402.285714-180.114286 402.285714-402.285714-180.114286-402.285714-402.285714-402.285715-402.285714 180.114286-402.285715 402.285715z m0 0"
          fill="#e0e094" p-id="16098" data-spm-anchor-id="a313x.7781069.0.i8" class="selected"></path>
    <path d="M204.8 361.814286a48.771429 48.771429 0 1 0 24.385714-42.228572 48.757143 48.757143 0 0 0-24.385714 42.228572z m0 0M375.957143 361.814286a48.757143 48.757143 0 1 0 24.371428-42.228572 48.757143 48.757143 0 0 0-24.371428 42.228572z m0 0M547.142857 361.814286a48.757143 48.757143 0 1 0 48.757143-48.757143A48.757143 48.757143 0 0 0 547.142857 361.814286z m0 0"
          fill="#4D4D4D" p-id="16099"></path>
    <path d="M90.7 849.428571a69.685714 69.685714 0 0 1-48.757143-19.5 75.571429 75.571429 0 0 1-20.971428-73.071428L61.428571 590.257143A363.185714 363.185714 0 0 1 0 390.1C0 174.571429 190.414286 0 424.714286 0s424.714286 174.571429 424.714285 390.1-191.142857 387.657143-424.714285 387.657143a531.342857 531.342857 0 0 0-143.114286 18.285714l-170.671429 50.714286a70.114286 70.114286 0 0 1-20.228571 2.671428zM424.714286 97.528571c-180.9 0-327.142857 130.671429-327.142857 292.571429a268.142857 268.142857 0 0 0 48.714285 153.9 76.528571 76.528571 0 0 1 11.942857 61.685714l-32.185714 134.571429 127.757143-37.785714a586.528571 586.528571 0 0 1 170.671429-22.185715c181.157143 0 327.928571-130.685714 327.928571-291.342857s-147.271429-291.428571-327.685714-291.428571z m0 0"
          fill="#4D4D4D" p-id="16100"></path>
    <path d="M891.128571 975.242857a67.357143 67.357143 0 0 1-19.014285-2.671428L664.142857 911.842857a386.7 386.7 0 0 1-193.585714-21.214286 48.757143 48.757143 0 1 1 34.371428-91.171428 289.5 289.5 0 0 0 151.171429 15.114286 64.842857 64.842857 0 0 1 28.757143 1.942857l165.8 48.757143-24.385714-101.428572a71.642857 71.642857 0 0 1 10.971428-58.028571 217.7 217.7 0 0 0 40.471429-125.557143 212.757143 212.757143 0 0 0-13.657143-75.585714 48.757143 48.757143 0 0 1 91.185714-34.371429 310.171429 310.171429 0 0 1 20 110 313.842857 313.842857 0 0 1-51.7 170.657143l33.171429 137.028571a71.428571 71.428571 0 0 1-19.757143 68.571429 66.285714 66.285714 0 0 1-45.828572 18.785714z m0 0"
          fill="#4D4D4D" p-id="16101"></path>
</svg>