<?xml version="1.0" standalone="no"?><!DOCTYPE svg PUBLIC "-//W3C//DTD SVG 1.1//EN" "http://www.w3.org/Graphics/SVG/1.1/DTD/svg11.dtd"><svg t="1652614242518" class="icon" viewBox="0 0 1069 1024" version="1.1" xmlns="http://www.w3.org/2000/svg" p-id="7801" xmlns:xlink="http://www.w3.org/1999/xlink" width="208.7890625" height="200"><defs><style type="text/css">@font-face { font-family: feedback-iconfont; src: url("//at.alicdn.com/t/font_1031158_u69w8yhxdu.woff2?t=1630033759944") format("woff2"), url("//at.alicdn.com/t/font_1031158_u69w8yhxdu.woff?t=1630033759944") format("woff"), url("//at.alicdn.com/t/font_1031158_u69w8yhxdu.ttf?t=1630033759944") format("truetype"); }
</style></defs><path d="M210.33106 135.339426m61.545702 0l736.213717 0q61.545702 0 61.545702 61.545701l0 654.535787q0 61.545702-61.545702 61.545702l-736.213717 0q-61.545702 0-61.545702-61.545702l0-654.535787q0-61.545702 61.545702-61.545701Z" fill="#D1141A" opacity=".35" p-id="7802"></path><path d="M870.37968 0H153.601447A153.589224 153.589224 0 0 0 0 153.601447v614.381342a153.601447 153.601447 0 0 0 153.601447 153.601447h222.469071l78.97652 78.976521a79.942182 79.942182 0 0 0 113.104742 0l79.013191-78.976521H870.318562a153.613671 153.613671 0 0 0 153.650341-153.61367V153.601447A153.589224 153.589224 0 0 0 870.37968 0zM679.630787 71.679046h140.840035v116.270648H679.630787z m272.585729 696.303743a82.007967 82.007967 0 0 1-81.897954 81.897955H617.437236L596.510475 870.89307l-79.074309 79.000967a8.287584 8.287584 0 0 1-11.746856 0l-78.964296-78.97652-20.987879-20.987879H153.601447a82.02019 82.02019 0 0 1-81.897954-81.897954V153.601447a82.02019 82.02019 0 0 1 81.897954-81.897954h322.555705v647.64169a35.839523 35.839523 0 0 0 71.679046 0V71.679046h80.675597v126.514004a40.973424 40.973424 0 0 0 40.961201 40.961201H830.714178a40.973424 40.973424 0 0 0 40.961201-40.961201V71.703493a81.995743 81.995743 0 0 1 80.675597 81.897954v614.381342z" p-id="7803"></path><path d="M348.151872 348.151872H189.465417a35.839523 35.839523 0 1 0 0 71.666822h158.698678a35.839523 35.839523 0 0 0 0-71.666822z m0 153.589224H189.465417a35.839523 35.839523 0 0 0 0 71.679045h158.698678a35.839523 35.839523 0 0 0 0-71.679045z m486.376061-153.589224H675.817031a35.839523 35.839523 0 1 0 0 71.666822h158.710902a35.839523 35.839523 0 1 0 0-71.666822z m0 153.589224H675.817031a35.839523 35.839523 0 0 0 0 71.679045h158.710902a35.839523 35.839523 0 0 0 0-71.679045z" p-id="7804"></path></svg>