<?xml version="1.0" standalone="no"?><!DOCTYPE svg PUBLIC "-//W3C//DTD SVG 1.1//EN" "http://www.w3.org/Graphics/SVG/1.1/DTD/svg11.dtd"><svg t="1647568474171" class="icon" viewBox="0 0 1024 1024" version="1.1" xmlns="http://www.w3.org/2000/svg" p-id="8890" xmlns:xlink="http://www.w3.org/1999/xlink" width="200" height="200"><defs><style type="text/css"></style></defs><path d="M922.368298 382.847501c-23.632233-38.296211-57.183374-72.499198-99.724259-101.658308-85.325317-58.485019-198.230784-90.694605-317.918723-90.694605-97.538477 0-190.459796 21.24793-268.717138 61.448514-38.234813 19.640316-71.738881 43.25106-99.582019 70.174246-28.804023 27.851325-50.915623 58.641585-65.721841 91.512227-6.689353 14.85022-0.073678 32.311917 14.777565 39.001269 14.85022 6.689353 32.31294 0.074701 39.001269-14.777565 23.548322-52.277644 72.726372-99.670024 138.475841-133.445268 69.957305-35.936467 153.558351-54.931077 241.766322-54.931077 107.903545 0 208.966289 28.54001 284.571221 80.363306 72.200392 49.488111 111.961978 114.180506 111.961978 182.158736s-39.762609 132.671649-111.961978 182.15976c-75.604932 51.822272-176.667675 80.363306-284.571221 80.363306-44.873 0-88.918145-4.979408-130.912585-14.798031-49.903573-11.670807-95.272877-29.6636-134.848221-53.482075-57.93755-34.869159-98.826819-79.491449-118.249171-129.044028-5.943362-15.165398-23.057135-22.639626-38.219463-16.695241-15.164375 5.943362-22.639626 23.055089-16.695241 38.219463 24.209378 61.767785 73.571622 116.421546 142.749168 158.055782 44.849464 26.992771 95.933933 47.307446 151.833057 60.379159 46.390563 10.848069 94.954629 16.34834 144.342456 16.34834 119.686916 0 232.593406-32.208563 317.918723-90.693582 42.540885-29.15911 76.093049-63.362096 99.724259-101.659331 25.130354-40.72554 37.872562-84.178191 37.872562-129.151475S947.498652 423.574065 922.368298 382.847501z" p-id="8891"></path><path d="M504.725316 677.305907c28.54615 0 56.697303-7.402597 81.410148-21.407566 23.930015-13.561877 44.286646-33.06814 58.868759-56.408731 16.373922-26.207895 25.029046-56.460919 25.029046-87.48961 0-31.709189-9.011234-62.526055-26.060539-89.119737-30.584576-47.705512-82.640162-76.18617-139.247414-76.18617-91.149976 0-165.30693 74.15593-165.30693 165.30693S413.574317 677.305907 504.725316 677.305907zM504.725316 405.675416c36.414351 0 69.907163 18.332531 89.592504 49.037856 10.946306 17.074887 16.733103 36.885072 16.733103 57.286728 0 19.964704-5.556553 39.411615-16.068977 56.237839-19.593244 31.362288-53.334719 50.086745-90.25663 50.086745-58.627259 0-106.324584-47.697325-106.324584-106.324584S446.098058 405.675416 504.725316 405.675416z" p-id="8892"></path></svg>