<svg width="1024" height="1024" xmlns="http://www.w3.org/2000/svg" style="vector-effect: non-scaling-stroke;" stroke="null" p-id="6788" version="1.1" class="icon" t="1661227374402">

 <g stroke="null">
  <title stroke="null">Layer 1</title>
  <g stroke="null" id="svg_3">
   <path stroke="null" id="svg_1" p-id="6789" fill="#000000" d="m346.13078,261.79684l170.79685,0l0,399.06306l-170.79685,0l0,-399.06306zm285.19851,-170.79685l0,460.82923c37.05969,-23.09518 80.56455,-37.0597 127.29198,-37.0597c14.50163,0 29.00324,2.14839 43.50486,4.83388l0,-428.60341l-170.79685,0zm-570.39701,341.59369l170.79685,0l0,228.26622l-170.79685,0l0,-228.26622zm-56.93228,285.1985l524.20667,0l0,113.86456l-524.20667,0l0,-113.86456z"/>
   <path stroke="null" id="svg_2" p-id="6790" fill="#BA0C00" d="m797.29226,546.45825c-123.53231,0 -222.89525,99.90004 -222.89525,222.89525s99.90004,222.89526 222.89525,222.89526s222.89526,-99.90004 222.89526,-222.89526s-99.90004,-222.89525 -222.89526,-222.89525zm104.19682,179.3904l-104.19682,104.19682l-24.16936,24.16936c-4.29678,4.29678 -11.81613,4.29678 -16.11291,0l-24.16937,-24.16936l-40.28227,-40.28228c-4.29678,-4.29678 -4.29678,-11.81613 0,-16.11291l24.16936,-24.16936c4.29678,-4.29678 11.81613,-4.29678 16.11291,0l32.22582,32.22582l96.14037,-96.14037c4.29678,-4.29678 11.81613,-4.29678 16.11291,0l24.16936,24.16937c4.29678,4.29678 4.29678,11.81613 0,16.11291z"/>
  </g>
 </g>
</svg>